<?xml version="1.0" standalone="no"?>
<!DOCTYPE svg PUBLIC "-//W3C//DTD SVG 20010904//EN"
 "http://www.w3.org/TR/2001/REC-SVG-20010904/DTD/svg10.dtd">
<svg version="1.0" xmlns="http://www.w3.org/2000/svg"
 width="360.000000pt" height="360.000000pt" viewBox="0 0 360.000000 360.000000"
 preserveAspectRatio="xMidYMid meet">
<metadata>
Created by potrace 1.14, written by Peter Selinger 2001-2017
</metadata>
<g transform="translate(0.000000,360.000000) scale(0.100000,-0.100000)"
fill="#000000" stroke="none">
<path d="M2485 2625 c-16 -8 -37 -20 -46 -27 -8 -7 -208 -269 -444 -583 -235
-314 -437 -580 -448 -592 l-20 -22 -26 29 c-99 110 -341 355 -366 370 -88 53
-204 20 -252 -73 -19 -37 -20 -125 -1 -160 7 -14 55 -70 107 -124 52 -54 140
-145 195 -203 378 -393 377 -393 396 -373 28 30 1110 1473 1132 1508 48 82 11
203 -75 244 -50 24 -109 26 -152 6z"/>
</g>
</svg>
